<svg width="117" height="40" viewBox="0 0 117 40" fill="none" xmlns="http://www.w3.org/2000/svg">
<path d="M49.6729 21.0027C49.6729 26.4999 45.3724 30.5507 40.0947 30.5507C34.8171 30.5507 30.5166 26.4999 30.5166 21.0027C30.5166 15.4668 34.8171 11.4547 40.0947 11.4547C45.3724 11.4547 49.6729 15.4668 49.6729 21.0027ZM45.48 21.0027C45.48 17.5675 42.9876 15.2171 40.0947 15.2171C37.2019 15.2171 34.7095 17.5675 34.7095 21.0027C34.7095 24.4035 37.2019 26.7883 40.0947 26.7883C42.9876 26.7883 45.48 24.3992 45.48 21.0027Z" fill="white"/>
<path d="M70.336 21.0027C70.336 26.4999 66.0355 30.5507 60.7578 30.5507C55.4802 30.5507 51.1797 26.4999 51.1797 21.0027C51.1797 15.4711 55.4802 11.4547 60.7578 11.4547C66.0355 11.4547 70.336 15.4668 70.336 21.0027ZM66.1431 21.0027C66.1431 17.5675 63.6506 15.2171 60.7578 15.2171C57.865 15.2171 55.3725 17.5675 55.3725 21.0027C55.3725 24.4035 57.865 26.7883 60.7578 26.7883C63.6506 26.7883 66.1431 24.3992 66.1431 21.0027Z" fill="white"/>
<path d="M90.1379 12.0316V29.1732C90.1379 36.2244 85.9795 39.1043 81.0634 39.1043C76.4358 39.1043 73.6506 36.0092 72.6002 33.478L76.2507 31.9584C76.9007 33.5124 78.4935 35.3463 81.0591 35.3463C84.2059 35.3463 86.156 33.4048 86.156 29.75V28.3768H86.0096C85.0712 29.5348 83.2632 30.5464 80.9816 30.5464C76.2076 30.5464 71.834 26.388 71.834 21.0372C71.834 15.6476 76.2076 11.4547 80.9816 11.4547C83.2589 11.4547 85.0669 12.4663 86.0096 13.5899H86.156V12.0359H90.1379V12.0316ZM86.453 21.0372C86.453 17.6751 84.2102 15.2171 81.3562 15.2171C78.4634 15.2171 76.0398 17.6751 76.0398 21.0372C76.0398 24.3648 78.4634 26.7883 81.3562 26.7883C84.2102 26.7883 86.453 24.3648 86.453 21.0372Z" fill="white"/>
<path d="M96.7023 1.98425V29.9653H92.6128V1.98425H96.7023Z" fill="white"/>
<path d="M112.639 24.1451L115.893 26.3147C114.843 27.8688 112.312 30.5463 107.938 30.5463C102.514 30.5463 98.4634 26.3535 98.4634 20.9983C98.4634 15.3203 102.549 11.4503 107.469 11.4503C112.424 11.4503 114.847 15.3935 115.639 17.5244L116.074 18.6092L103.311 23.8954C104.288 25.8111 105.807 26.7883 107.938 26.7883C110.073 26.7883 111.554 25.7379 112.639 24.1451ZM102.622 20.7099L111.154 17.1671C110.685 15.9746 109.273 15.1438 107.611 15.1438C105.48 15.1438 102.514 17.025 102.622 20.7099Z" fill="white"/>
<path d="M15.0366 18.5189V14.4681H28.6871C28.8205 15.1741 28.8894 16.0092 28.8894 16.9132C28.8894 19.9524 28.0586 23.7105 25.381 26.3881C22.7766 29.1001 19.449 30.5465 15.0409 30.5465C6.87043 30.5465 0 23.8913 0 15.7208C0 7.55033 6.87043 0.895142 15.0409 0.895142C19.5609 0.895142 22.7809 2.66871 25.2002 4.98038L22.3418 7.83875C20.607 6.21155 18.2566 4.94594 15.0366 4.94594C9.07018 4.94594 4.40379 9.75438 4.40379 15.7208C4.40379 21.6872 9.07018 26.4957 15.0366 26.4957C18.9066 26.4957 21.1107 24.9417 22.5226 23.5297C23.6677 22.3846 24.421 20.7488 24.7181 18.5146L15.0366 18.5189Z" fill="white"/>
</svg>
