<svg width="96" height="24" viewBox="0 0 96 24" fill="none" xmlns="http://www.w3.org/2000/svg">
<g clip-path="url(#clip0_96_3904)">
<path fill-rule="evenodd" clip-rule="evenodd" d="M94.8246 16.2145C94.5275 15.9994 94.2919 15.9687 94.0973 16.3783C90.7586 23.5984 85.1361 19.9935 85.6994 20.311C86.9488 19.7375 90.2262 17.1157 89.7345 13.4801C89.4376 11.2577 87.5326 10.2745 85.5049 10.633C81.9716 11.2475 80.6812 15.0572 81.3366 18.4266C81.4492 19.0104 81.6541 19.4815 81.8693 19.9526C77.8853 23.1991 76.298 17.0543 76.1135 16.3169C76.1034 16.2759 79.1963 13.7054 80.0565 7.57082C80.9577 1.1495 78.9094 -0.0282563 76.8101 0.012709C72.9286 0.0843983 71.8839 8.18529 73.2869 14.9343C73.1742 14.965 72.6212 15.2723 71.7406 15.303C71.1056 13.306 68.3916 11.5547 67.6849 12.2306C65.9131 13.9204 68.115 17.2181 69.6719 17.4742C68.7397 23.2196 62.9022 21.796 63.9877 14.5964C65.8825 11.0733 67.3367 5.81954 67.0705 2.65496C66.9783 1.53867 66.1487 0.0331917 64.2746 0.104881C60.6697 0.248261 60.2805 8.34914 60.7003 14.1048C60.68 13.9614 60.4751 14.8012 59.0002 15.2211C58.652 13.2855 55.5285 11.3294 54.7912 12.2716C53.4188 14.0229 55.805 17.1465 56.9315 17.3615C55.9996 23.1069 50.1621 21.6834 51.2476 14.4837C53.1526 10.9607 54.5966 5.71713 54.3405 2.55257C54.2484 1.43625 53.4188 -0.0692216 51.5445 0.00246767C47.9396 0.145846 47.5504 8.24673 47.9705 14.0024C47.9499 13.859 47.745 14.7295 46.2088 15.1392C46.1577 12.6198 43.0239 11.4727 42.266 12.2716C40.9243 13.7054 42.5732 16.6446 44.0991 17.3615C43.1672 23.1069 37.3297 21.6834 38.4152 14.4837C40.3099 10.9607 41.7642 5.7069 41.498 2.54231C41.416 1.43625 40.5865 -0.0692216 38.7121 0.00246767C35.1072 0.145846 34.8206 8.65639 35.2404 14.412C34.0524 19.502 30.0686 25.8516 30.5907 13.1216C30.642 12.2306 30.6933 11.8926 30.2529 11.5547C29.915 11.2987 29.1571 11.4215 28.7473 11.4318C28.2455 11.4523 28.1125 11.7493 28.01 12.1897C27.7541 13.3367 27.7028 14.453 27.6618 15.9789C27.6414 16.6958 27.5799 17.0236 27.3033 17.9965C27.0268 18.9694 25.4702 20.7412 24.61 20.4442C23.4219 20.0345 23.811 16.6856 24.0363 14.3813C24.2208 12.5583 23.6268 11.7493 22.111 11.4523C21.22 11.2679 20.6773 11.2987 19.7555 11.0016C18.8748 10.7251 18.6802 9.06605 16.8163 9.61908C15.7921 9.92633 16.4476 12.0872 16.2018 13.6951C14.9933 21.5912 12.4842 21.8063 11.3167 17.976C16.5602 5.11289 12.8222 0.043433 10.6407 0.043433C8.36717 0.043433 5.76588 1.61036 6.86168 11.6469C6.32914 11.4932 6.16528 11.4113 5.57128 11.4113C2.26333 11.4011 0 14.0843 0 17.3923C0 20.7002 2.26333 23.3834 5.58153 23.3834C7.53762 23.3834 8.90995 22.4924 9.95457 21.1201C10.6305 22.093 11.4601 23.4039 12.9758 23.3425C17.482 23.1684 18.7928 13.9204 18.9465 13.3981C19.4278 13.4698 19.8887 13.6132 20.3291 13.6849C21.0664 13.7975 21.1279 14.0945 21.1074 14.8319C20.9128 21.1201 22.0701 23.322 24.7022 23.322C26.1666 23.322 27.4775 21.878 28.3788 20.8538C29.0548 22.2466 30.1196 23.281 31.5639 23.322C35.0459 23.4039 36.3875 17.8531 36.2646 18.5802C36.1723 19.1538 37.3911 23.281 40.9859 23.3015C45.4305 23.322 46.2601 18.4369 46.3523 17.6176C46.3626 17.4537 46.3727 17.4742 46.3523 17.6176C46.3523 17.6278 46.3523 17.6483 46.3523 17.6688C47.7656 17.4025 48.4926 16.6549 48.4926 16.6549C48.4926 16.6549 49.6294 23.3834 53.8183 23.3118C58.1709 23.2298 59.0002 18.8158 59.1028 17.9555C59.1131 17.7507 59.1231 17.7712 59.1028 17.9555C59.1028 17.9658 59.1028 17.976 59.1028 17.976C60.7823 17.3615 61.2227 16.7573 61.2227 16.7573C61.2227 16.7573 62.1239 23.3527 66.5481 23.4141C70.4912 23.4654 71.9555 19.42 71.9658 17.7302C72.6315 17.7404 73.8605 17.3308 73.8299 17.3103C73.8299 17.3103 75.2738 23.0762 79.3089 23.3732C81.2036 23.5165 82.627 22.3081 83.4362 21.7551C85.341 23.3015 91.6805 25.2679 95.6848 18.4778C96.2583 17.5152 95.0395 16.3579 94.8246 16.2145ZM5.41765 21.1406C3.48206 21.1406 2.24285 19.3484 2.24285 17.423C2.24285 15.4976 3.37965 13.7054 5.31526 13.7054C6.18577 13.7054 6.66711 13.7975 7.35327 14.3915C7.47618 14.8729 7.82437 15.9892 7.99849 16.5013C8.22378 17.1772 8.50031 17.7609 8.76658 18.3857C8.36717 20.0038 7.09723 21.1406 5.41765 21.1406ZM10.1287 14.4428C10.0468 14.3096 10.0672 14.3915 9.97506 14.2686C9.62686 13.306 8.94069 11.1553 8.85876 8.7076C8.76658 5.94245 9.22745 2.69594 10.5895 2.69594C11.5113 2.69594 12.4944 9.27088 10.1287 14.4428ZM37.3808 11.5649C37.1658 9.92633 37.1555 2.60378 38.9069 2.80859C39.8798 3.19776 38.2923 10.1004 37.3808 11.5649ZM50.2132 11.5649C49.9982 9.92633 49.9879 2.60378 51.7393 2.80859C52.7122 3.19776 51.1247 10.1004 50.2132 11.5649ZM62.9432 11.6673C62.728 10.0287 62.718 2.70617 64.4692 2.911C65.442 3.28994 63.8548 10.2028 62.9432 11.6673ZM76.9943 2.36823C78.6022 2.20435 78.5306 9.21968 75.3148 13.6439C74.8948 12.0463 74.26 2.92126 76.9943 2.36823ZM83.7537 17.4742C83.2416 14.8626 84.573 13.1523 85.9453 12.968C86.4267 12.8963 87.123 13.2035 87.256 13.7873C87.4815 14.8831 87.2254 16.5115 84.1428 18.57C84.1531 18.5802 83.8663 18.0477 83.7537 17.4742ZM29.28 9.42448C30.3758 9.42448 31.2667 8.53349 31.2667 7.43768C31.2667 6.34185 30.3758 5.45086 29.28 5.45086C28.1842 5.45086 27.293 6.34185 27.293 7.43768C27.293 8.53349 28.1842 9.42448 29.28 9.42448Z" fill="white"/>
</g>
<defs>
<clipPath id="clip0_96_3904">
<rect width="96" height="24" fill="white"/>
</clipPath>
</defs>
</svg>
