<svg width="86" height="28" viewBox="0 0 86 28" fill="none" xmlns="http://www.w3.org/2000/svg">
<g clip-path="url(#clip0_96_3909)">
<path d="M13.2187 0.0612793C17.3309 0.0612793 20.5772 1.47675 22.6677 3.99045C22.9513 3.86856 23.2493 3.74708 23.5493 3.62683C24.0904 3.41039 24.6468 3.18729 24.9633 3.01051L25.0595 2.95337L25.9858 2.36198L25.5196 3.35884C25.0497 4.36268 24.8494 5.24586 24.803 5.95134C25.2674 5.84299 25.5901 5.67271 26.0377 5.3693L26.212 5.24914L26.9815 4.71029L26.704 5.60332C26.6593 5.74901 26.6113 6.02028 26.5567 6.33424C26.3933 7.27529 26.143 8.68624 25.4905 9.70075C25.7117 10.5088 25.8561 11.6165 25.646 13.0644C25.6284 13.183 25.5549 13.284 25.4474 13.3369C25.3961 13.3623 25.3399 13.3755 25.2853 13.3755C25.2758 13.3755 25.2676 13.3673 25.2582 13.3673C24.8223 21.8047 19.923 27.5966 13.0246 27.5966C6.55954 27.5966 1.46771 21.2018 1.16812 12.9088C1.06716 12.8879 0.974003 12.8284 0.921061 12.7291L0.91011 12.7077C0.798579 12.4811 0.00144869 10.6557 1.45992 7.68117C1.50301 7.59458 1.57688 7.52727 1.66963 7.49649C1.6762 7.49321 1.77223 7.46284 1.94255 7.4099C3.60015 2.87949 7.71851 0.0612793 13.2187 0.0612793ZM13.2651 12.3782C8.62878 12.3782 2.34638 11.3986 3.41875 16.5495C4.93067 23.8132 8.94643 19.3759 13.5827 19.3759C18.219 19.3759 21.3865 23.2074 23.1118 16.5495C24.3877 11.6198 17.8997 12.3782 13.2651 12.3782ZM1.78701 7.83959C0.321467 10.8265 1.24035 12.5592 1.24035 12.5592C14.5492 7.05408 25.2836 13.0131 25.2836 13.0131C25.7326 9.92688 24.5191 8.3846 24.5191 8.3846C14.724 3.48401 1.78701 7.83959 1.78701 7.83959ZM26.3962 5.5118C25.7022 5.99607 25.3144 6.2222 24.4776 6.34409C23.7754 6.44505 23.0264 6.70647 22.3743 7.09102C23.1758 7.37337 23.947 7.6939 24.6812 8.06079C24.721 8.08008 24.7563 8.10881 24.787 8.14287C24.787 8.14287 24.7883 8.14575 24.7883 8.14739L24.7965 8.15334L24.8047 8.16052L24.8092 8.16668C24.8108 8.16668 24.8108 8.16832 24.8125 8.16996C24.8654 8.24219 25.1285 8.62058 25.3624 9.28419C26.0823 7.96968 26.2169 6.08923 26.3962 5.5118ZM25.2295 3.22423C24.5433 3.66213 22.4272 4.31754 21.778 4.80673C21.1525 5.27623 20.6925 5.89019 20.5242 6.54601C21.0146 6.67241 21.5051 6.79758 21.975 6.95312C22.5857 6.54765 23.3055 6.2575 24.027 6.10031C24.0286 6.10524 24.0303 6.10852 24.0319 6.11139L24.0919 6.09718L24.1522 6.08267V6.07446C24.2449 6.05681 24.3397 6.03957 24.4325 6.02644C24.4485 6.0248 24.4583 6.02028 24.4743 6.01864C24.5113 5.25694 24.7226 4.30645 25.2295 3.22423Z" fill="white"/>
<path d="M8.99948 16.96C8.99948 17.6363 8.45119 17.0515 7.77444 17.0515C7.0981 17.0515 6.5498 17.6363 6.5498 16.96C6.5498 16.2832 7.0981 15.7354 7.77444 15.7354C8.45119 15.7354 8.99948 16.2832 8.99948 16.96Z" fill="white"/>
<path d="M19.8891 16.96C19.8891 17.6363 19.3408 17.0515 18.6645 17.0515C17.9877 17.0515 17.4395 17.6363 17.4395 16.96C17.4395 16.2832 17.9877 15.7354 18.6645 15.7354C19.3408 15.7354 19.8891 16.2832 19.8891 16.96Z" fill="white"/>
<path d="M36.8276 5.29443H38.3713V22.0023H36.8276V5.29443ZM53.6036 9.94812V22.0023H52.0826V19.9365C50.7054 21.5861 49.1315 22.4109 47.3609 22.4109C45.5902 22.4109 44.0957 21.7791 42.8774 20.5154C41.6591 19.2517 41.05 17.7459 41.05 15.9979C41.05 14.2499 41.6629 12.7517 42.8888 11.5031C44.1146 10.2546 45.5826 9.6303 47.2927 9.6303C49.2602 9.6303 50.8568 10.4702 52.0826 12.1501V9.94812H53.6036ZM52.1734 16.032C52.1734 14.6548 51.7119 13.4932 50.7887 12.5474C49.8655 11.6015 48.7343 11.1286 47.3949 11.1286C46.0555 11.1286 44.9243 11.6166 44.0011 12.5928C43.0779 13.5689 42.6164 14.7229 42.6164 16.0547C42.6164 17.3864 43.0855 18.5404 44.0238 19.5165C44.9621 20.4927 46.0858 20.9808 47.3949 20.9808C48.704 20.9808 49.8277 20.5116 50.766 19.5733C51.7043 18.635 52.1734 17.4546 52.1734 16.032ZM57.1222 9.94812H58.6659V12.1501C59.8917 10.4702 61.4884 9.6303 63.4558 9.6303C65.1508 9.6303 66.6112 10.2546 67.8371 11.5031C69.0629 12.7517 69.6758 14.2537 69.6758 16.0093C69.6758 17.7648 69.0705 19.2706 67.8598 20.5267C66.649 21.7829 65.1962 22.4109 63.5012 22.4109C61.6548 22.4109 60.0431 21.5861 58.6659 19.9365V26.4063H57.1222V9.94812ZM68.1322 16.032C68.1322 14.685 67.6668 13.5311 66.7361 12.5701C65.8053 11.6091 64.6665 11.1286 63.3196 11.1286C61.9727 11.1286 60.8414 11.6015 59.9258 12.5474C59.0102 13.4932 58.5524 14.6623 58.5524 16.0547C58.5524 17.447 59.0215 18.6161 59.9598 19.5619C60.8982 20.5078 62.0218 20.9808 63.3309 20.9808C64.64 20.9808 65.7675 20.5003 66.7134 19.5392C67.6592 18.5782 68.1322 17.4091 68.1322 16.032ZM84.5903 9.94812V22.0023H83.0694V19.9365C81.6922 21.5861 80.1182 22.4109 78.3476 22.4109C76.5769 22.4109 75.0824 21.7791 73.8641 20.5154C72.6459 19.2517 72.0367 17.7459 72.0367 15.9979C72.0367 14.2499 72.6496 12.7517 73.8755 11.5031C75.1013 10.2546 76.5693 9.6303 78.2795 9.6303C80.2469 9.6303 81.8435 10.4702 83.0694 12.1501V9.94812H84.5903ZM83.1602 16.032C83.1602 14.6548 82.6986 13.4932 81.7754 12.5474C80.8522 11.6015 79.721 11.1286 78.3816 11.1286C77.0423 11.1286 75.911 11.6166 74.9878 12.5928C74.0647 13.5689 73.6031 14.7229 73.6031 16.0547C73.6031 17.3864 74.0722 18.5404 75.0105 19.5165C75.9488 20.4927 77.0725 20.9808 78.3816 20.9808C79.6907 20.9808 80.8144 20.5116 81.7527 19.5733C82.691 18.635 83.1602 17.4546 83.1602 16.032Z" fill="white"/>
</g>
<defs>
<clipPath id="clip0_96_3909">
<rect width="84.75" height="27.9978" fill="white" transform="translate(0.546875 0.0012207)"/>
</clipPath>
</defs>
</svg>
