<svg width="120" height="28" viewBox="0 0 120 28" fill="none" xmlns="http://www.w3.org/2000/svg">
<g clip-path="url(#clip0_96_3930)">
<path d="M14.1884 27.9984C21.9195 27.9984 28.1869 21.7311 28.1869 13.9999C28.1869 6.26879 21.9195 0.00146484 14.1884 0.00146484C6.45726 0.00146484 0.189941 6.26879 0.189941 13.9999C0.189941 21.7311 6.45726 27.9984 14.1884 27.9984Z" fill="white"/>
<path d="M16.055 7.00073H9.28906V20.9992H12.0888V16.7997H16.055C17.3544 16.7997 18.6006 16.2835 19.5194 15.3646C20.4383 14.4458 20.9544 13.1996 20.9544 11.9002C20.9544 10.6008 20.4383 9.35458 19.5194 8.43575C18.6006 7.51692 17.3544 7.00073 16.055 7.00073ZM16.055 14H12.0888V9.80042H16.055C16.6119 9.80042 17.146 10.0216 17.5397 10.4154C17.9335 10.8092 18.1548 11.3433 18.1548 11.9002C18.1548 12.4571 17.9335 12.9912 17.5397 13.385C17.146 13.7787 16.6119 14 16.055 14Z" fill="white"/>
<path d="M37.519 18.666V9.33374H41.8061C43.7997 9.33374 44.8846 10.6811 44.8846 12.2886C44.8846 13.8961 43.7857 15.2294 41.8061 15.2294H39.473V18.666H37.519ZM42.8933 12.2886C42.8933 11.5187 42.3007 11.0521 41.5319 11.0521H39.4707V13.5123H41.5319C42.3019 13.5123 42.8933 13.0445 42.8933 12.2886Z" fill="white"/>
<path d="M46.0723 18.666V11.8627H47.8221V12.7563C48.3027 12.1789 49.1146 11.6982 49.9393 11.6982V13.4014C49.7806 13.3707 49.6191 13.3571 49.4576 13.3606C48.8801 13.3606 48.1102 13.6907 47.8244 14.1165V18.666H46.0723Z" fill="white"/>
<path d="M50.5962 15.1745C50.5962 13.2917 51.9155 11.6982 54.0958 11.6982C56.2761 11.6982 57.6141 13.2917 57.6141 15.1745C57.6141 17.0573 56.3006 18.666 54.1016 18.666C51.9027 18.666 50.5962 17.0573 50.5962 15.1745ZM55.806 15.1745C55.806 14.1445 55.2005 13.2509 54.1016 13.2509C53.0028 13.2509 52.4102 14.1445 52.4102 15.1745C52.4102 16.2046 53.0144 17.1121 54.1016 17.1121C55.1889 17.1121 55.806 16.2162 55.806 15.1745Z" fill="white"/>
<path d="M63.492 18.666V17.6488C63.253 17.9655 62.9436 18.2222 62.5883 18.3987C62.233 18.5753 61.8415 18.6668 61.4447 18.666C59.7813 18.666 58.5039 17.4015 58.5039 15.1746C58.5039 13.0177 59.7544 11.6983 61.4447 11.6983C61.8422 11.6944 62.2348 11.7846 62.5907 11.9617C62.9465 12.1387 63.2554 12.3974 63.492 12.7167V9.33374H65.2523V18.666H63.492ZM63.492 16.3563V14.0069C63.2039 13.5671 62.5716 13.251 61.9942 13.251C60.991 13.251 60.3039 14.0337 60.3039 15.1746C60.3039 16.3155 60.991 17.1122 61.9942 17.1122C62.5716 17.1122 63.2039 16.7996 63.492 16.3563Z" fill="white"/>
<path d="M71.4655 18.666V17.6628C71.1672 17.9825 70.8059 18.2367 70.4043 18.4094C70.0026 18.5821 69.5695 18.6695 69.1324 18.666C67.6754 18.666 66.9883 17.8681 66.9883 16.5768V11.8628H68.7381V15.8897C68.7381 16.8101 69.2199 17.1122 69.9618 17.1122C70.2551 17.1081 70.5437 17.0381 70.8062 16.9072C71.0688 16.7763 71.2985 16.588 71.4783 16.3563V11.8628H73.2281V18.666H71.4655Z" fill="white"/>
<path d="M74.5254 15.1745C74.5254 13.1413 76.0092 11.6982 78.0437 11.6982C79.405 11.6982 80.2298 12.2885 80.6696 12.8939L79.5275 13.9648C79.3746 13.7361 79.1657 13.5504 78.9206 13.4255C78.6756 13.3005 78.4025 13.2404 78.1277 13.2509C77.0684 13.2509 76.3265 14.0208 76.3265 15.1745C76.3265 16.3282 77.0684 17.1121 78.1277 17.1121C78.4032 17.1172 78.6756 17.0533 78.9201 16.9261C79.1646 16.799 79.3734 16.6127 79.5275 16.3842L80.6696 17.4563C80.2298 18.0605 79.405 18.666 78.0437 18.666C76.0151 18.666 74.5254 17.223 74.5254 15.1745Z" fill="white"/>
<path d="M82.1697 16.8381V13.3886H81.0708V11.8628H82.1697V10.0488H83.9195V11.8628H85.2657V13.3886H83.916V16.3703C83.916 16.7961 84.1353 17.1122 84.5202 17.1122C84.7804 17.1122 85.0289 17.0166 85.1245 16.9069L85.4955 18.2391C85.2353 18.4724 84.7676 18.666 84.0385 18.666C82.8159 18.666 82.1697 18.0338 82.1697 16.8381Z" fill="white"/>
<path d="M96.4423 18.666V14.6392H92.1132V18.666H90.1616V9.33374H92.1132V12.9348H96.4434V9.33374H98.4125V18.666H96.4423Z" fill="white"/>
<path d="M104.653 18.666V17.6628C104.355 17.9825 103.994 18.2367 103.592 18.4094C103.191 18.5821 102.758 18.6695 102.32 18.666C100.863 18.666 100.176 17.8681 100.176 16.5768V11.8628H101.926V15.8897C101.926 16.8101 102.408 17.1122 103.15 17.1122C103.443 17.1081 103.732 17.0381 103.994 16.9072C104.257 16.7763 104.486 16.588 104.666 16.3563V11.8628H106.416V18.666H104.653Z" fill="white"/>
<path d="M112.615 18.6662V14.4876C112.615 13.5672 112.134 13.2511 111.391 13.2511C111.097 13.2561 110.807 13.328 110.544 13.4614C110.282 13.5948 110.053 13.7861 109.875 14.021V18.6662H108.125V11.8629H109.875V12.7168C110.169 12.3936 110.528 12.136 110.928 11.9609C111.329 11.7858 111.762 11.6972 112.199 11.7008C113.668 11.7008 114.369 12.5244 114.369 13.8169V18.6662H112.615Z" fill="white"/>
<path d="M116.454 16.8381V13.3886H115.355V11.8628H116.454V10.0488H118.204V11.8628H119.55V13.3886H118.204V16.3703C118.204 16.7961 118.423 17.1122 118.808 17.1122C119.069 17.1122 119.317 17.0166 119.414 16.9069L119.784 18.2391C119.524 18.4724 119.056 18.666 118.327 18.666C117.101 18.666 116.454 18.0338 116.454 16.8381Z" fill="white"/>
</g>
<defs>
<clipPath id="clip0_96_3930">
<rect width="119.59" height="27.9969" fill="white" transform="translate(0.189941 0.00146484)"/>
</clipPath>
</defs>
</svg>
