<svg width="115" height="18" viewBox="0 0 115 18" fill="none" xmlns="http://www.w3.org/2000/svg">
<g clip-path="url(#clip0_96_3919)">
<path d="M1.32752 8.47552C1.73106 6.37708 3.58738 4.92432 6.17007 4.92432C9.15631 4.92432 11.4969 6.21566 11.4969 10.2511V17.7571H8.91418L8.59135 16.1429C7.70355 17.2728 6.49291 17.9992 4.7173 17.9992C2.53816 17.9992 0.843262 16.6272 0.843262 14.1252C0.843262 11.6232 3.10312 10.009 6.25078 10.009H8.34922V9.44403C8.34922 7.99127 7.3 7.58772 6.08936 7.58772C5.20156 7.58772 4.31376 7.91056 3.91021 9.04049L1.32752 8.47552ZM5.44369 15.3358C6.89645 15.3358 8.34922 14.3673 8.34922 12.7531V12.511H6.33149C4.95943 12.4303 4.15234 12.9952 4.15234 14.1252C4.15234 14.6901 4.63659 15.3358 5.44369 15.3358Z" fill="white"/>
<path d="M62.1825 8.47552C62.586 6.37708 64.4424 4.92432 67.025 4.92432C70.0113 4.92432 72.3519 6.21566 72.3519 10.2511V17.7571H69.7692L69.4463 16.1429C68.5585 17.2728 67.3479 17.9992 65.5723 17.9992C63.3931 17.9992 61.6982 16.6272 61.6982 14.1252C61.6982 11.6232 63.9581 10.009 67.1058 10.009H69.2042V9.44403C69.2042 7.99127 68.155 7.58772 66.9443 7.58772C66.0565 7.58772 65.1687 7.91056 64.7652 9.04049L62.1825 8.47552ZM66.2987 15.3358C67.7514 15.3358 69.2042 14.3673 69.2042 12.7531V12.511H67.1058C65.7337 12.511 64.9266 12.9952 64.9266 14.1252C65.0073 14.6901 65.4916 15.3358 66.2987 15.3358Z" fill="white"/>
<path d="M75.1763 17.8378V5.08574H78.3239V7.18417C79.2117 5.6507 80.6645 4.92432 82.0366 4.92432C82.6015 4.92432 83.0858 5.00503 83.57 5.16644L83.0051 8.07198C82.6015 7.82985 82.198 7.66843 81.7137 7.66843C79.8574 7.66843 78.3239 9.2019 78.3239 13.2374V17.7571L75.1763 17.8378Z" fill="white"/>
<path d="M90.2689 4.92424C91.5603 4.92424 92.7709 5.56991 93.3359 6.2963V0.000976562H96.4835V17.8377H93.3359V16.5464C92.9323 17.192 91.8024 18.0798 90.2689 18.0798C86.4756 18.0798 84.5386 15.4164 84.5386 11.5424C84.5386 7.66835 86.4756 4.92424 90.2689 4.92424ZM90.7532 15.3357C92.3674 15.3357 93.6587 13.9637 93.6587 11.4617C93.6587 8.9597 92.3674 7.58764 90.7532 7.58764C89.139 7.58764 87.8477 8.9597 87.8477 11.4617C87.8477 13.9637 89.139 15.3357 90.7532 15.3357Z" fill="white"/>
<path d="M107.783 6.94209L105.926 8.63698C105.362 7.82989 104.474 7.50705 103.828 7.50705C103.182 7.50705 102.617 7.9106 102.617 8.55627C102.617 9.12124 103.102 9.52478 103.828 9.76691C105.604 10.4126 108.428 10.9775 108.428 13.641C108.428 15.9815 106.653 17.8378 103.909 17.8378C101.245 17.8378 99.4697 15.9815 98.9048 14.448L101.407 13.076C101.891 14.2866 102.698 15.1744 103.989 15.1744C104.958 15.1744 105.604 14.6902 105.604 13.8024C105.604 12.7532 103.989 12.511 102.456 11.8654C101.084 11.3004 99.8733 10.4126 99.8733 8.47556C99.8733 6.53854 101.487 4.76294 103.909 4.76294C105.523 4.84365 107.056 5.73145 107.783 6.94209Z" fill="white"/>
<path d="M42.7315 5.08569L40.4716 13.883L38.2925 5.08569H35.3869L33.2885 13.883L31.5129 8.79832L31.2708 9.36328L30.3022 12.6724L31.9164 17.8378H34.6605L36.8397 9.60541L39.0188 17.8378H41.8437L45.8791 5.08569H42.7315Z" fill="white"/>
<path d="M57.8239 5.08569L55.564 13.883L53.3849 5.08569H50.4794L48.3809 13.883L46.6053 8.79832L46.3632 9.36328L45.314 12.6724L47.0089 17.8378H49.753L51.9321 9.60541L54.1113 17.8378H56.8554L60.9716 5.08569H57.8239Z" fill="white"/>
<path d="M30.7866 5.08569L26.7511 17.757H24.007L21.8279 9.60541L19.6487 17.8378H16.9046L12.8691 5.1664H16.0168L18.2767 13.883L20.4558 5.1664H23.3613L25.5405 13.883L27.8003 5.1664L30.7866 5.08569Z" fill="white"/>
<path d="M112.545 13.7214C113.755 13.7214 114.643 14.6092 114.643 15.8199C114.643 17.0305 113.755 17.9183 112.545 17.9183C111.334 17.9183 110.446 17.0305 110.446 15.8199C110.446 14.6092 111.334 13.7214 112.545 13.7214Z" fill="white"/>
</g>
<defs>
<clipPath id="clip0_96_3919">
<rect width="113.8" height="17.9982" fill="white" transform="translate(0.843262 0.000976562)"/>
</clipPath>
</defs>
</svg>
