<svg width="91" height="91" viewBox="0 0 91 91" fill="none" xmlns="http://www.w3.org/2000/svg">
<path d="M82.4108 38.6214H79.3901V38.4658H45.6401V53.4658H66.8333C63.7414 62.1976 55.4333 68.4658 45.6401 68.4658C33.2145 68.4658 23.1401 58.3914 23.1401 45.9658C23.1401 33.5401 33.2145 23.4658 45.6401 23.4658C51.3758 23.4658 56.5939 25.6295 60.567 29.1639L71.1739 18.557C64.4764 12.3151 55.5176 8.46576 45.6401 8.46576C24.9308 8.46576 8.14014 25.2564 8.14014 45.9658C8.14014 66.6751 24.9308 83.4658 45.6401 83.4658C66.3495 83.4658 83.1401 66.6751 83.1401 45.9658C83.1401 43.4514 82.8814 40.997 82.4108 38.6214Z" fill="#FFC107"/>
<path d="M12.4639 28.5114L24.7845 37.547C28.1182 29.2933 36.192 23.4658 45.6401 23.4658C51.3757 23.4658 56.5939 25.6295 60.567 29.1639L71.1739 18.557C64.4764 12.3151 55.5176 8.46576 45.6401 8.46576C31.2364 8.46576 18.7451 16.5976 12.4639 28.5114Z" fill="#FF3D00"/>
<path d="M45.6402 83.4658C55.3265 83.4658 64.1277 79.7589 70.7821 73.7308L59.1759 63.9095C55.2844 66.869 50.5292 68.4696 45.6402 68.4658C35.8865 68.4658 27.6046 62.2464 24.4846 53.567L12.2559 62.9889C18.4621 75.1333 31.0659 83.4658 45.6402 83.4658Z" fill="#4CAF50"/>
<path d="M82.4108 38.6214H79.3901V38.4658H45.6401V53.4658H66.8333C65.3543 57.6215 62.6902 61.253 59.1701 63.9114L59.1758 63.9076L70.782 73.7289C69.9608 74.4751 83.1401 64.7158 83.1401 45.9658C83.1401 43.4514 82.8814 40.997 82.4108 38.6214Z" fill="#1976D2"/>
</svg>
