<svg width="91" height="91" viewBox="0 0 91 91" fill="none" xmlns="http://www.w3.org/2000/svg">
<g clip-path="url(#clip0_188_43)">
<path d="M69.0981 0.965759H21.2856C9.63589 0.965759 0.191895 10.4098 0.191895 22.0595V69.872C0.191895 81.5218 9.63589 90.9658 21.2856 90.9658H69.0981C80.7479 90.9658 90.1919 81.5218 90.1919 69.872V22.0595C90.1919 10.4098 80.7479 0.965759 69.0981 0.965759Z" fill="url(#paint0_radial_188_43)"/>
<path d="M69.0981 0.965759H21.2856C9.63589 0.965759 0.191895 10.4098 0.191895 22.0595V69.872C0.191895 81.5218 9.63589 90.9658 21.2856 90.9658H69.0981C80.7479 90.9658 90.1919 81.5218 90.1919 69.872V22.0595C90.1919 10.4098 80.7479 0.965759 69.0981 0.965759Z" fill="url(#paint1_radial_188_43)"/>
<path d="M45.1951 10.8095C35.6473 10.8095 34.4488 10.8513 30.6991 11.0219C26.9563 11.1934 24.4015 11.7858 22.1663 12.6552C19.8537 13.5531 17.8924 14.7544 15.9384 16.7091C13.9826 18.6634 12.7813 20.6248 11.8806 22.9363C11.0088 25.1722 10.4157 27.7281 10.2473 31.4691C10.0796 35.2192 10.0356 36.418 10.0356 45.9661C10.0356 55.5142 10.0778 56.7088 10.248 60.4586C10.4203 64.2013 11.0126 66.7561 11.8813 68.9913C12.7799 71.3039 13.9812 73.2653 15.9359 75.2193C17.8896 77.175 19.8509 78.3791 22.1617 79.277C24.3987 80.1464 26.9539 80.7388 30.6959 80.9104C34.446 81.0809 35.6435 81.1227 45.1908 81.1227C54.7396 81.1227 55.9342 81.0809 59.684 80.9104C63.4267 80.7388 65.9844 80.1464 68.2213 79.277C70.5329 78.3791 72.4914 77.175 74.4447 75.2193C76.4004 73.2653 77.6014 71.3039 78.5024 68.9924C79.3666 66.7561 79.96 64.2006 80.1358 60.4593C80.3042 56.7095 80.3481 55.5142 80.3481 45.9661C80.3481 36.418 80.3042 35.2199 80.1358 31.4698C79.96 27.727 79.3666 25.1726 78.5024 22.9374C77.6014 20.6248 76.4004 18.6634 74.4447 16.7091C72.4893 14.7537 70.5336 13.5524 68.2192 12.6556C65.978 11.7858 63.4218 11.1931 59.6791 11.0219C55.929 10.8513 54.7351 10.8095 45.1842 10.8095H45.1951ZM42.0412 17.145C42.9774 17.1436 44.0219 17.145 45.1951 17.145C54.5821 17.145 55.6945 17.1788 59.4013 17.3472C62.8291 17.504 64.6896 18.0767 65.9288 18.5579C67.5695 19.195 68.7392 19.9568 69.969 21.1876C71.1994 22.4181 71.9609 23.5899 72.5997 25.2306C73.081 26.4681 73.6544 28.3286 73.8105 31.7563C73.9789 35.4625 74.0154 36.5755 74.0154 45.958C74.0154 55.3405 73.9789 56.4539 73.8105 60.1597C73.6537 63.5875 73.081 65.4479 72.5997 66.6858C71.9627 68.3265 71.1994 69.4948 69.969 70.7245C68.7385 71.955 67.5703 72.7165 65.9288 73.3539C64.691 73.8373 62.8291 74.4086 59.4013 74.5654C55.6952 74.7338 54.5821 74.7703 45.1951 74.7703C35.8076 74.7703 34.6949 74.7338 30.9891 74.5654C27.5614 74.4072 25.7009 73.8345 24.4606 73.3532C22.8202 72.7158 21.6481 71.9543 20.4176 70.7238C19.1872 69.4934 18.4257 68.3244 17.7869 66.683C17.3056 65.4451 16.7322 63.5847 16.5761 60.1569C16.4077 56.4508 16.374 55.3377 16.374 45.9492C16.374 36.5611 16.4077 35.4537 16.5761 31.7475C16.7329 28.3198 17.3056 26.4593 17.7869 25.2201C18.4243 23.5793 19.1872 22.4076 20.418 21.1771C21.6485 19.9466 22.8202 19.1848 24.461 18.5463C25.7002 18.0629 27.5614 17.4917 30.9891 17.3342C34.2323 17.1876 35.4891 17.1436 42.0412 17.1362V17.145ZM63.9615 22.9824C61.6324 22.9824 59.7427 24.8703 59.7427 27.1997C59.7427 29.5288 61.6324 31.4185 63.9615 31.4185C66.2906 31.4185 68.1802 29.5288 68.1802 27.1997C68.1802 24.8706 66.2906 22.981 63.9615 22.981V22.9824ZM45.1951 27.9116C35.2247 27.9116 27.1409 35.9954 27.1409 45.9661C27.1409 55.9368 35.2247 64.0167 45.1951 64.0167C55.1657 64.0167 63.2467 55.9368 63.2467 45.9661C63.2467 35.9958 55.165 27.9116 45.1944 27.9116H45.1951ZM45.1951 34.2471C51.667 34.2471 56.914 39.4935 56.914 45.9661C56.914 52.438 51.667 57.6851 45.1951 57.6851C38.7228 57.6851 33.4764 52.438 33.4764 45.9661C33.4764 39.4935 38.7228 34.2471 45.1951 34.2471Z" fill="white"/>
</g>
<defs>
<radialGradient id="paint0_radial_188_43" cx="0" cy="0" r="1" gradientUnits="userSpaceOnUse" gradientTransform="translate(24.0981 97.8975) rotate(-90) scale(89.1967 82.96)">
<stop stop-color="#FFDD55"/>
<stop offset="0.1" stop-color="#FFDD55"/>
<stop offset="0.5" stop-color="#FF543E"/>
<stop offset="1" stop-color="#C837AB"/>
</radialGradient>
<radialGradient id="paint1_radial_188_43" cx="0" cy="0" r="1" gradientUnits="userSpaceOnUse" gradientTransform="translate(-14.8835 7.44892) rotate(78.681) scale(39.8714 164.351)">
<stop stop-color="#3771C8"/>
<stop offset="0.128" stop-color="#3771C8"/>
<stop offset="1" stop-color="#6600FF" stop-opacity="0"/>
</radialGradient>
<clipPath id="clip0_188_43">
<rect width="90" height="90" fill="white" transform="translate(0.191895 0.965759)"/>
</clipPath>
</defs>
</svg>
