<svg width="76" height="86" viewBox="0 0 76 86" fill="none" xmlns="http://www.w3.org/2000/svg">
<g clip-path="url(#clip0_188_55)">
<path d="M65.78 17.6572C65.7215 17.2322 65.3492 16.997 65.0415 16.9711C62.7727 16.8006 60.5038 16.6315 58.2348 16.4637C58.2348 16.4637 53.7208 11.9823 53.2253 11.4862C52.7296 10.9905 51.7614 11.1413 51.3856 11.2519C51.3303 11.2682 50.3994 11.5555 48.8595 12.032C47.3516 7.69297 44.6904 3.70554 40.0087 3.70554C39.8795 3.70554 39.7464 3.71078 39.6134 3.71834C38.2819 1.9575 36.6326 1.1925 35.2079 1.1925C24.302 1.1925 19.0917 14.826 17.4581 21.7541C13.2203 23.0672 10.2098 24.0007 9.82525 24.1215C7.45981 24.8635 7.385 24.9381 7.0744 27.167C6.84065 28.8545 0.651367 76.7191 0.651367 76.7191L48.8796 85.7553L75.0112 80.1022C75.0112 80.1022 65.8376 18.0822 65.78 17.6572ZM46.1939 12.8564L42.113 14.1195C42.1145 13.8319 42.1159 13.5489 42.1159 13.2395C42.1159 10.5428 41.7416 8.37151 41.1411 6.65026C43.5534 6.953 45.1599 9.69774 46.1939 12.8564ZM38.1486 7.185C38.8193 8.8655 39.2553 11.2772 39.2553 14.5317C39.2553 14.6982 39.2539 14.8504 39.2524 15.0044C36.5985 15.8265 33.7146 16.719 30.8243 17.6144C32.4472 11.3512 35.4891 8.3261 38.1486 7.185ZM34.9084 4.11773C35.3791 4.11773 35.8533 4.27754 36.3071 4.58988C32.8119 6.23458 29.0655 10.3769 27.4834 18.6489L20.8214 20.7122C22.6745 14.4027 27.075 4.11773 34.9084 4.11773Z" fill="#95BF46"/>
<path d="M65.0414 16.9711C62.7726 16.8006 60.5037 16.6315 58.2347 16.4637C58.2347 16.4637 53.7207 11.9823 53.2253 11.4862C53.0399 11.3017 52.7898 11.2071 52.5284 11.1663L48.8818 85.7547L75.0112 80.1022C75.0112 80.1022 65.8376 18.0822 65.78 17.6572C65.7214 17.2322 65.3491 16.997 65.0414 16.9711Z" fill="#5E8E3E"/>
<path d="M40.0084 31.4101L36.7863 40.9947C36.7863 40.9947 33.9633 39.488 30.5027 39.488C25.4295 39.488 25.1742 42.6717 25.1742 43.4739C25.1742 47.8514 36.5852 49.5287 36.5852 59.7823C36.5852 67.8494 31.4686 73.044 24.5696 73.044C16.2908 73.044 12.0571 67.8916 12.0571 67.8916L14.2738 60.5677C14.2738 60.5677 18.6257 64.3039 22.2979 64.3039C24.6974 64.3039 25.6734 62.4147 25.6734 61.0343C25.6734 55.3242 16.3118 55.0695 16.3118 45.6866C16.3118 37.7894 21.98 30.1473 33.4218 30.1473C37.8305 30.1473 40.0084 31.4101 40.0084 31.4101Z" fill="white"/>
</g>
<defs>
<clipPath id="clip0_188_55">
<rect width="74.5205" height="85" fill="white" transform="translate(0.640137 0.965759)"/>
</clipPath>
</defs>
</svg>
