<svg width="80" height="91" viewBox="0 0 80 91" fill="none" xmlns="http://www.w3.org/2000/svg">
<g clip-path="url(#clip0_188_59)">
<path d="M59.0704 33.3723C64.8671 37.5138 71.9684 39.9507 79.6379 39.9507V25.2C78.1863 25.2003 76.7387 25.0488 75.3185 24.7481V36.359C67.6496 36.359 60.5492 33.9225 54.7514 29.7813V59.8835C54.7514 74.9424 42.5374 87.1488 27.4721 87.1488C21.8508 87.1488 16.6258 85.4503 12.2856 82.5371C17.2394 87.5998 24.1476 90.7401 31.7902 90.7401C46.8568 90.7401 59.0711 78.5337 59.0711 63.4742V33.3723H59.0704ZM64.3991 18.4906C61.4365 15.2559 59.4913 11.0756 59.0704 6.4539V4.55676H54.9773C56.0077 10.4307 59.5223 15.4489 64.3991 18.4906ZM21.8145 70.9817C20.1594 68.8129 19.2647 66.1593 19.2687 63.431C19.2687 56.5439 24.8552 50.9595 31.7477 50.9595C33.032 50.9589 34.3087 51.156 35.533 51.5439V36.4633C34.1023 36.2675 32.6585 36.184 31.2154 36.2147V47.9526C29.9906 47.5644 28.7132 47.3674 27.4283 47.3685C20.5362 47.3685 14.95 52.9522 14.95 59.8404C14.95 64.7109 17.7421 68.9276 21.8145 70.9817Z" fill="#FF004F"/>
<path d="M54.7512 29.781C60.5494 33.9222 67.6492 36.3587 75.3184 36.3587V24.7478C71.0375 23.8363 67.2479 21.6006 64.3986 18.4906C59.5215 15.4486 56.0075 10.4303 54.9772 4.55676H44.2259V63.4736C44.2014 70.3421 38.6245 75.9035 31.7469 75.9035C27.6944 75.9035 24.0938 73.9728 21.8137 70.9814C17.742 68.9276 14.9495 64.7106 14.9495 59.8407C14.9495 52.9532 20.5357 47.3688 27.4278 47.3688C28.7484 47.3688 30.0211 47.5743 31.215 47.9529V36.215C16.414 36.5207 4.51074 48.608 4.51074 63.4739C4.51074 70.8948 7.47485 77.6222 12.2858 82.5377C16.626 85.4503 21.8506 87.1495 27.4722 87.1495C42.5379 87.1495 54.7515 74.942 54.7515 59.8835V29.7813L54.7512 29.781Z" fill="black"/>
<path d="M75.3186 24.7475V21.6087C71.4582 21.6145 67.6741 20.534 64.3988 18.4906C67.2981 21.663 71.1157 23.8507 75.3186 24.7481V24.7475ZM54.9771 4.55645C54.8789 3.99522 54.8035 3.43024 54.7511 2.8629V0.965759H39.9061V59.8832C39.8825 66.7511 34.3056 72.3125 27.4278 72.3125C25.4779 72.3154 23.5548 71.8596 21.8136 70.982C24.0937 73.9728 27.6943 75.9032 31.7468 75.9032C38.6241 75.9032 44.2016 70.3424 44.2258 63.4739V4.55676H54.9771V4.55645ZM31.2158 36.2147V32.8726C29.9754 32.7031 28.7248 32.6182 27.4728 32.6188C12.4055 32.6188 0.191895 44.8259 0.191895 59.8832C0.191895 69.3235 4.992 77.6433 12.2863 82.5371C7.47538 77.6219 4.51127 70.8942 4.51127 63.4735C4.51127 48.608 16.4142 36.5204 31.2158 36.2147Z" fill="#00F2EA"/>
</g>
<defs>
<clipPath id="clip0_188_59">
<rect width="79.4483" height="90" fill="white" transform="translate(0.191895 0.965759)"/>
</clipPath>
</defs>
</svg>
