<svg width="239" height="61" viewBox="0 0 239 61" fill="none" xmlns="http://www.w3.org/2000/svg">
<g clip-path="url(#clip0_188_64)">
<path d="M77.1922 24.3881C77.1922 20.116 73.0378 15.5788 65.8494 15.5788C57.7769 15.5788 48.909 21.5006 47.5536 33.3146C46.169 45.2467 53.5932 50.5499 61.0764 50.5499C68.5601 50.5499 72.4783 47.6332 76.4853 43.7444C73.0378 39.4132 68.5894 41.4169 67.735 41.8588C66.7922 42.3299 65.5843 42.9783 63.1094 42.9783C60.222 42.9783 57.2759 41.682 57.2759 36.2904C75.7783 34.4639 77.1922 28.6597 77.1922 24.3881ZM68.0294 25.0951C67.9118 26.4206 67.3815 28.6895 58.0127 29.956C59.9866 22.9444 63.7573 22.4141 65.4959 22.4141C67.1164 22.4141 68.1471 23.6806 68.0294 25.0951ZM36.682 26.2439C36.682 26.2439 32.7052 38.7355 32.3806 39.7667C32.2629 38.7062 29.3462 16.2858 29.3462 16.2858C22.5699 16.2858 18.9462 21.1174 17.0313 26.2146C17.0313 26.2146 12.1992 38.7355 11.7871 39.796C11.7573 38.8239 11.0504 26.362 11.0504 26.362C10.6378 20.1155 4.92246 16.3155 0.296875 16.3155L5.89455 50.2848C12.995 50.2555 16.8248 45.4532 18.8285 40.356C18.8285 40.356 23.1001 29.3081 23.2769 28.8072C23.3066 29.2783 26.3411 50.2848 26.3411 50.2848C33.4708 50.2848 37.3011 45.7769 39.3634 40.8569L49.3508 16.3155C42.309 16.3155 38.5973 21.1174 36.682 26.2439ZM103.354 15.5197C98.9643 15.5197 95.6057 17.9062 92.7773 21.4123V21.383L95.3113 0.965759C89.4778 0.965759 84.7346 6.0332 83.8211 13.5751L79.4015 50.0197C82.7606 50.0197 86.3253 49.0476 88.2401 46.5727C89.949 48.782 92.5122 50.5499 96.3127 50.5499C106.153 50.5499 112.9 39.1188 112.9 28.3946C112.841 18.6132 108.097 15.5197 103.354 15.5197ZM102.441 33.0499C101.41 39.0304 98.0806 43.0965 94.869 43.0965C91.6285 43.0965 90.2439 41.6523 90.2439 41.6523C90.8625 36.4081 91.2453 33.1969 92.4239 30.4276C93.6025 27.6583 96.4011 23.2388 99.3178 23.2388C102.175 23.2388 103.472 27.0397 102.441 33.0499ZM137.471 16.3146H130.606L130.636 15.9611C131.107 11.483 132.168 9.12622 135.674 8.74343C138.06 8.50762 139.121 7.26995 139.386 5.91506C139.592 4.8546 140.24 1.17134 140.24 1.17134C126.452 1.08297 122.122 7.0346 121.002 16.1085L120.972 16.3151H120.825C118.586 16.3151 116.111 18.8486 115.699 22.0597L115.551 23.2383H120.148L116.288 55.116L115.109 60.8318C115.257 60.8318 115.434 60.8611 115.581 60.8611C122.033 60.6253 126.157 55.5285 127.071 48.1337L130.076 23.2383H132.227C134.348 23.2383 136.823 21.1174 137.265 17.5816L137.471 16.3146ZM173.179 15.7258C165.253 15.7258 157.77 21.5592 155.472 30.7216C153.174 39.8844 156.65 50.7262 168.317 50.7262C179.955 50.7262 186.672 39.4425 186.672 30.0439C186.672 20.7044 180.338 15.7258 173.179 15.7258ZM176.39 32.7546C175.977 36.9086 174.151 43.2137 169.142 43.2137C164.104 43.2137 164.811 35.8481 165.312 32.342C165.842 28.6006 167.935 23.2676 172.442 23.2676C176.478 23.2676 176.861 28.0699 176.39 32.7546ZM225.827 26.2434C225.827 26.2434 221.849 38.7351 221.525 39.7662C221.408 38.7058 218.491 16.2853 218.491 16.2853C211.715 16.2853 208.091 21.1169 206.176 26.2141C206.176 26.2141 201.344 38.7351 200.932 39.7955C200.902 38.8234 200.195 26.3616 200.195 26.3616C199.782 20.1151 194.067 16.3151 189.442 16.3151L195.01 50.2844C202.11 50.2551 205.94 45.4527 207.943 40.3555C207.943 40.3555 212.215 29.3076 212.363 28.8067C212.392 29.2779 215.427 50.2844 215.427 50.2844C222.557 50.2844 226.387 45.7765 228.449 40.8565L238.436 16.3155C231.424 16.3155 227.712 21.1169 225.827 26.2434ZM143.953 1.17181L138.178 47.7509L137 53.496C137.147 53.496 137.323 53.5258 137.471 53.5258C143.687 53.4374 148.107 47.9867 148.931 41.122L152.261 14.4002C153.262 6.23925 148.401 1.17227 143.953 1.17227V1.17181Z" fill="black"/>
</g>
<defs>
<clipPath id="clip0_188_64">
<rect width="238.14" height="60" fill="white" transform="translate(0.296875 0.965759)"/>
</clipPath>
</defs>
</svg>
