<svg width="195" height="61" viewBox="0 0 195 61" fill="none" xmlns="http://www.w3.org/2000/svg">
<path d="M181.946 17.7244C185.187 17.7244 187.633 18.3357 189.346 19.4976C191.058 20.6601 192.282 22.4946 193.016 25.0027C193.75 27.5103 194.055 30.9348 194.055 35.3387V42.4952H178.337V44.6965L178.582 50.7517C178.765 52.0973 179.071 53.0761 179.56 53.6874C180.05 54.2993 180.844 54.6049 181.884 54.6049C183.291 54.6049 184.27 54.0549 184.759 52.9542C185.309 51.853 185.554 50.0179 185.615 47.5103L193.75 47.9997C193.811 48.3666 193.811 48.856 193.811 49.4673C193.811 53.3205 192.771 56.1956 190.63 58.0913C188.49 59.987 185.554 60.9658 181.701 60.9658C177.052 60.9658 173.811 59.4982 171.976 56.6237C170.141 53.7487 169.163 49.2223 169.163 43.1677V35.7669C169.37 25.3696 171.199 17.7547 181.946 17.7244ZM68.8565 18.5194V49.1616C68.8565 50.9967 69.0396 52.3423 69.4678 53.1374C70.3363 54.8377 72.5872 54.4031 73.8104 53.5655C74.5165 53.0882 75.0857 52.4347 75.4617 51.6698V18.5188H84.8195V60.2926H77.4799L76.6849 55.155H76.5017C74.4835 59.0082 71.4859 60.9652 67.5108 60.9652C61.392 60.95 59.8947 56.5415 59.5383 52.0641L59.515 51.7485C59.471 51.0704 59.4451 50.3912 59.4374 49.7117V18.5194H68.8559H68.8565ZM117.114 18.5194V49.1616C117.114 50.9967 117.297 52.3423 117.725 53.1374C118.594 54.8377 120.844 54.4031 122.067 53.5655C122.774 53.0882 123.343 52.4347 123.719 51.6698V18.5188H133.077V60.2926H125.737L124.942 55.155H124.759C122.741 59.0082 119.743 60.9652 115.768 60.9652C109.649 60.95 108.152 56.5415 107.795 52.0641L107.772 51.7485C107.728 51.0704 107.702 50.3912 107.695 49.7117V18.5194H117.114ZM41.7 17.7244C44.7582 17.7244 47.2658 18.3357 49.1009 19.6201C50.9353 20.9045 52.3422 22.862 53.1985 25.5528C54.0548 28.2441 54.4829 31.8524 54.4829 36.3175V42.3721C54.4829 46.8372 54.0548 50.3848 53.1985 53.0755C52.3422 55.7674 50.9966 57.7244 49.1009 59.0088C47.2052 60.232 44.6357 60.9045 41.4556 60.9045C38.1524 60.9658 35.5836 60.2932 33.6879 59.0701C31.7922 57.7856 30.4459 55.8281 29.6515 53.1374C28.8559 50.446 28.489 46.8984 28.489 42.4339V36.3782C28.489 31.913 28.9171 28.2435 29.8346 25.5522C30.7522 22.8002 32.1585 20.8427 34.116 19.6201C36.073 18.3963 38.5806 17.7238 41.7 17.7238V17.7244ZM147.756 0.965759V22.984H147.817C148.673 21.3939 149.774 20.1095 151.303 19.1307C152.731 18.1705 154.414 17.6593 156.135 17.6631C158.398 17.6631 160.111 18.2744 161.395 19.4364C162.679 20.6601 163.597 22.5558 164.147 25.1859C164.681 27.7337 164.984 31.2574 165.003 35.7009L165.003 36.1343V42.7396C165.003 48.9166 164.208 53.5043 162.74 56.44C161.212 59.3757 158.887 60.8438 155.707 60.8438C153.933 60.8438 152.343 60.4157 150.875 59.6207C149.577 58.8642 148.501 57.7796 147.755 56.4756L147.633 56.2562H147.45L146.471 60.232H138.704V0.966343H147.756V0.965759ZM110.324 3.10645V10.6899H101.027V60.2926H91.8534V10.6904H82.4956V3.10703H110.325L110.324 3.10645ZM9.46717 3.10645L9.47301 3.12978C9.56225 3.52701 10.7988 9.02456 12.1591 15.4297L12.2664 15.9372L12.4286 16.7042L12.537 17.2193L12.5913 17.4777L12.6998 17.9956L12.754 18.2552L12.8619 18.7749L13.0194 19.5349C13.9381 23.9703 14.8148 28.4185 15.3392 31.608H15.5842C16.0864 28.7469 16.8161 25.0856 17.5942 21.3472L17.7984 20.3708C17.901 19.882 18.0037 19.3932 18.1075 18.9056L18.2673 18.149C19.324 13.195 20.4122 8.2478 21.532 3.30769L21.5495 3.22894L21.5775 3.10645H30.9353L20.1094 41.7001V60.232H10.8741V41.7608H10.8128L0.109375 3.10587L9.46717 3.10645ZM41.5163 24.2071C40.2319 24.2071 39.3756 24.8802 38.8255 26.2872C38.2749 27.6935 38.0305 29.8342 38.0305 32.8317V45.859C38.0305 48.9172 38.2749 51.1798 38.7643 52.5261C39.2537 53.8711 40.1712 54.5443 41.5163 54.5443C42.8007 54.5443 43.7182 53.8711 44.2688 52.5261C44.8195 51.1798 45.0639 48.9172 45.0639 45.859V32.8311C45.0639 29.8342 44.8189 27.6322 44.2688 26.2866C43.7182 24.8802 42.8007 24.2071 41.5163 24.2071ZM149.407 25.4309C148.662 26.1192 148.131 26.9679 147.816 28.0289L147.756 28.2441V51.9749C148.514 53.2593 149.591 54.1155 151.487 54.1768C152.465 54.1768 153.26 53.8099 153.872 53.0761C154.484 52.3423 154.912 51.1186 155.156 49.406C155.391 47.7623 155.514 45.498 155.523 42.6142V36.8069C155.523 33.5043 155.4 30.9967 155.217 29.2229C154.972 27.4491 154.667 26.1647 154.117 25.4309C153.052 23.9015 150.753 23.9201 149.407 25.4309ZM181.762 24.024C180.722 24.0852 179.988 24.3909 179.56 24.9415C179.071 25.5528 178.765 26.4703 178.582 27.816C178.402 29.1342 178.34 33.7422 178.337 33.9266V36.9294H185.187V34.2812V34.332C185.183 35.2576 185.164 33.7947 185.122 31.9988L185.116 31.7573C185.077 30.1789 185.021 28.4191 184.943 27.816C184.759 26.4091 184.453 25.4303 183.964 24.8802C183.474 24.3296 182.741 24.024 181.762 24.024H181.762Z" fill="black"/>
</svg>
